<?xml version="1.0" standalone="no"?>
<!DOCTYPE svg PUBLIC "-//W3C//DTD SVG 20010904//EN"
 "http://www.w3.org/TR/2001/REC-SVG-20010904/DTD/svg10.dtd">
<svg version="1.0" xmlns="http://www.w3.org/2000/svg"
 width="491.000000pt" height="508.000000pt" viewBox="0 0 491.000000 508.000000"
 preserveAspectRatio="xMidYMid meet">

<g transform="translate(0.000000,508.000000) scale(0.100000,-0.100000)"
fill="#8E0303" stroke="none">
<path d="M2364 4664 c-179 -278 -326 -494 -338 -494 -11 0 -157 98 -193 129
-7 6 -14 11 -17 11 -2 0 -70 45 -151 101 -80 56 -148 99 -151 97 -2 -3 4 -31
15 -64 43 -138 93 -319 126 -459 9 -38 21 -85 26 -102 l11 -33 733 0 734 0 10
38 c6 20 11 42 11 49 0 7 6 32 14 55 7 24 21 77 30 118 17 75 48 186 87 312
12 37 19 71 18 77 -4 9 -71 -34 -294 -187 -161 -112 -208 -142 -220 -142 -5 0
-96 131 -202 291 l-192 291 -57 -88z m-79 -484 l0 -155 -35 0 -35 0 -3 145
c-1 79 0 150 3 158 3 8 17 12 37 10 l33 -3 0 -155z m283 8 c29 -84 52 -156 52
-160 0 -5 -15 -8 -34 -8 -30 0 -36 4 -46 35 -11 35 -12 35 -69 35 -56 0 -57
-1 -66 -32 -9 -29 -15 -33 -47 -36 -21 -2 -38 -1 -38 1 0 4 84 251 100 292 8
21 16 25 53 25 l43 0 52 -152z"/>
<path d="M2460 4226 c-5 -15 -13 -38 -16 -51 -6 -23 -3 -25 29 -25 l36 0 -16
48 c-20 60 -20 60 -33 28z"/>
<path d="M1975 3670 c-237 -17 -288 -22 -430 -41 -258 -34 -373 -54 -585 -103
-181 -42 -200 -48 -206 -71 -3 -11 -3 -387 -2 -835 4 -710 6 -825 21 -891 20
-94 51 -196 84 -274 28 -66 121 -228 135 -233 4 -2 8 -8 8 -13 0 -14 37 -56
135 -154 130 -131 214 -195 380 -295 50 -30 91 -57 93 -62 2 -4 7 -8 12 -8 4
0 51 -25 105 -55 53 -30 98 -55 100 -55 3 0 38 -20 78 -45 41 -25 77 -45 79
-45 3 0 50 -25 103 -55 54 -31 146 -81 204 -112 58 -31 112 -61 119 -66 9 -7
24 -4 50 10 20 12 64 35 97 53 129 69 192 104 248 136 32 19 60 34 63 34 2 0
46 24 97 53 50 30 112 65 137 79 25 14 63 36 85 48 22 13 60 35 85 49 233 134
448 309 548 446 20 28 39 52 42 55 10 8 75 120 105 180 38 76 81 202 95 280 6
36 15 83 20 105 5 22 9 412 10 866 l0 826 -32 6 c-18 4 -67 16 -108 27 -143
39 -413 90 -584 110 -55 7 -109 15 -120 19 -12 5 -55 9 -96 10 -41 1 -106 7
-145 12 -86 13 -893 20 -1030 9z m1005 -189 c47 -6 123 -13 170 -16 47 -3 128
-13 180 -21 52 -8 127 -20 165 -26 75 -12 264 -49 355 -71 l55 -12 3 -755 c2
-733 2 -758 -18 -845 -82 -356 -247 -567 -630 -806 -136 -85 -313 -191 -381
-228 -30 -16 -106 -57 -169 -93 -63 -35 -154 -84 -202 -108 l-87 -45 -38 20
c-21 11 -64 34 -95 52 -32 17 -91 49 -130 69 -40 21 -84 45 -98 55 -14 9 -47
29 -75 43 -27 15 -57 31 -65 36 -30 19 -306 183 -325 194 -50 28 -185 123
-235 165 -107 90 -230 223 -230 250 0 6 -4 11 -8 11 -12 0 -99 167 -123 237
-65 187 -62 135 -66 957 -3 411 -2 759 1 771 5 18 16 25 58 33 29 5 105 21
168 35 246 52 520 87 857 107 159 10 848 3 963 -9z"/>
<path d="M2417 3242 c-14 -6 -9 -12 28 -30 74 -36 128 -73 119 -82 -9 -8 -66
-39 -253 -138 -97 -52 -77 -53 -271 18 -63 23 -123 44 -133 47 -22 7 -162
-128 -209 -202 -77 -120 -148 -311 -148 -397 l0 -35 143 -6 c78 -3 169 -12
201 -18 l60 -12 115 120 c64 66 133 134 153 152 l37 32 47 -22 c26 -11 64 -27
83 -34 20 -7 56 -21 81 -32 25 -11 87 -38 139 -59 51 -20 95 -43 98 -51 3 -7
0 -50 -6 -95 -6 -46 -11 -116 -12 -157 -1 -41 -6 -94 -12 -119 -10 -51 -14
-46 105 -140 37 -29 116 -104 176 -167 l110 -115 31 35 c88 101 157 237 207
410 19 66 26 334 10 390 l-8 30 -13 -35 c-8 -19 -14 -43 -14 -52 -1 -9 -6 -29
-11 -43 l-10 -27 -43 33 c-23 19 -44 36 -47 39 -3 3 -44 36 -91 73 l-86 67
-63 190 c-35 104 -61 192 -58 196 7 7 86 -17 153 -46 28 -12 68 -28 89 -35
l39 -14 -59 61 c-156 159 -322 246 -509 268 -102 11 -142 12 -168 2z"/>
<path d="M1583 2184 c-27 -6 -28 -18 -8 -116 17 -79 65 -190 116 -265 36 -54
127 -148 177 -182 l33 -23 57 59 c85 86 158 146 243 196 84 49 164 87 186 87
43 0 -27 57 -137 111 -75 36 -277 101 -365 117 -69 13 -269 23 -302 16z"/>
<path d="M2610 1774 c-143 -22 -346 -129 -458 -243 -28 -28 -32 -36 -20 -46
26 -26 205 -65 298 -65 57 0 202 22 255 38 44 14 147 63 168 80 16 14 16 17
-9 51 -37 50 -184 191 -197 190 -7 -1 -23 -3 -37 -5z"/>
</g>
</svg>
